<svg width="40" height="40" viewBox="0 0 40 40" fill="none" xmlns="http://www.w3.org/2000/svg">
<path d="M19.9998 1.66669L23.7548 5.85752L29.1665 4.16669L30.3873 9.61252L35.8332 10.8334L34.1665 16.245L38.3332 20L34.1665 23.755L35.8332 29.1667L30.3873 30.3875L29.1665 35.8334L23.7548 34.1425L19.9998 38.3334L16.2448 34.1425L10.8332 35.8334L9.61234 30.3875L4.1665 29.1667L5.83317 23.755L1.6665 20L5.83317 16.245L4.1665 10.8334L9.61234 9.61252L10.8332 4.16669L16.2448 5.85752L19.9998 1.66669Z" fill="#8BC34A"/>
<path d="M28.8351 12.1683L17.5001 23.4992L12.8318 18.8342L10.501 21.165L17.5001 28.1675L31.1651 14.4992L28.8351 12.1683Z" fill="#CCFF90"/>
</svg>
