<svg width="56" height="56" viewBox="0 0 56 56" fill="none" xmlns="http://www.w3.org/2000/svg">
<rect width="56" height="56" rx="28" fill="#FCFCFD"/>
<path d="M37.3333 40H21.3333C19.124 40 17.3333 38.2093 17.3333 36V20C17.3333 17.7907 19.124 16 21.3333 16H30.6666L38.6666 24V38.6667C38.6666 39.4027 38.0693 40 37.3333 40Z" fill="#F8DF98"/>
<path d="M30.6667 21.3333V16L38.6667 24H33.3334C31.86 24 30.6667 22.8067 30.6667 21.3333Z" fill="#7FB51A"/>
<path d="M14.6667 26.6667V36.7813C14.6667 37.488 14.948 38.1667 15.448 38.6667L16.3907 39.6093C16.912 40.1307 17.756 40.1307 18.276 39.6093L19.2187 38.6667C19.7187 38.1667 20 37.488 20 36.7813V26.6667C20 25.1933 18.8067 24 17.3334 24C15.86 24 14.6667 25.1933 14.6667 26.6667Z" fill="#7FB51A"/>
<path d="M24 40C24.7364 40 25.3334 39.4031 25.3334 38.6667C25.3334 37.9303 24.7364 37.3334 24 37.3334C23.2636 37.3334 22.6667 37.9303 22.6667 38.6667C22.6667 39.4031 23.2636 40 24 40Z" fill="#7FB51A"/>
<path d="M37.3333 40H29.3333C28.5973 40 28 39.4027 28 38.6667C28 37.9307 28.5973 37.3334 29.3333 37.3334H37.3333C38.0693 37.3334 38.6667 37.9307 38.6667 38.6667C38.6667 39.4027 38.0693 40 37.3333 40Z" fill="#7FB51A"/>
</svg>
