<svg width="14" height="8" viewBox="0 0 14 8" fill="none" xmlns="http://www.w3.org/2000/svg">
<path d="M6.99609 0C3.69453 0 0.785494 2.28839 0.0137447 5.28703C-0.0151123 5.39943 0.00186584 5.5187 0.0609441 5.61859C0.120022 5.71848 0.216361 5.7908 0.328767 5.81966C0.441174 5.84852 0.560439 5.83154 0.660327 5.77246C0.760216 5.71338 0.832544 5.61705 0.861401 5.50464C1.5264 2.92077 4.10264 0.875 6.99609 0.875C9.88953 0.875 12.4739 2.92149 13.1387 5.50464C13.1676 5.61705 13.2399 5.71338 13.3398 5.77246C13.4397 5.83154 13.559 5.84852 13.6714 5.81966C13.7838 5.7908 13.8801 5.71848 13.9392 5.61859C13.9983 5.5187 14.0153 5.39943 13.9864 5.28703C13.2145 2.28767 10.2976 0 6.99609 0ZM7.00064 2.33333C5.44896 2.33333 4.18196 3.60033 4.18196 5.15202C4.18196 6.7037 5.44896 7.97127 7.00064 7.97127C8.55233 7.97127 9.8199 6.7037 9.8199 5.15202C9.8199 3.60033 8.55233 2.33333 7.00064 2.33333Z" fill="#FCFCFD"/>
</svg>
