<svg width="18" height="18" viewBox="0 0 18 18" fill="none" xmlns="http://www.w3.org/2000/svg">
<path d="M10.8979 7.10244L7.10293 10.8974C6.61543 10.4099 6.31543 9.74244 6.31543 8.99994C6.31543 7.51494 7.51543 6.31494 9.00043 6.31494C9.74293 6.31494 10.4104 6.61494 10.8979 7.10244Z" stroke="#A89AB9" stroke-width="1.5" stroke-linecap="round" stroke-linejoin="round"/>
<path d="M13.3649 4.32736C12.0524 3.33736 10.5524 2.79736 8.99988 2.79736C6.35238 2.79736 3.88488 4.35736 2.16738 7.05736C1.49238 8.11486 1.49238 9.89236 2.16738 10.9499C2.75988 11.8799 3.44988 12.6824 4.19988 13.3274" stroke="#A89AB9" stroke-width="1.5" stroke-linecap="round" stroke-linejoin="round"/>
<path d="M6.31543 14.6473C7.17043 15.0073 8.07793 15.2023 9.00043 15.2023C11.6479 15.2023 14.1154 13.6423 15.8329 10.9423C16.5079 9.88477 16.5079 8.10727 15.8329 7.04977C15.5854 6.65977 15.3154 6.29227 15.0379 5.94727" stroke="#A89AB9" stroke-width="1.5" stroke-linecap="round" stroke-linejoin="round"/>
<path d="M11.6326 9.5249C11.4376 10.5824 10.5751 11.4449 9.51758 11.6399" stroke="#A89AB9" stroke-width="1.5" stroke-linecap="round" stroke-linejoin="round"/>
<path d="M7.1025 10.8975L1.5 16.5" stroke="#A89AB9" stroke-width="1.5" stroke-linecap="round" stroke-linejoin="round"/>
<path d="M16.5 1.5L10.8975 7.1025" stroke="#A89AB9" stroke-width="1.5" stroke-linecap="round" stroke-linejoin="round"/>
</svg>
