<svg width="16" height="16" viewBox="0 0 16 16" fill="none" xmlns="http://www.w3.org/2000/svg">
<path opacity="0.35" d="M8.00001 14.6666C11.6819 14.6666 14.6667 11.6818 14.6667 7.99992C14.6667 4.31802 11.6819 1.33325 8.00001 1.33325C4.31811 1.33325 1.33334 4.31802 1.33334 7.99992C1.33334 11.6818 4.31811 14.6666 8.00001 14.6666Z" fill="#39A062"/>
<path d="M7.33334 11.3333V7.99992C7.33334 7.63192 7.63201 7.33325 8.00001 7.33325C8.36801 7.33325 8.66668 7.63192 8.66668 7.99992V11.3333C8.66668 11.7013 8.36801 11.9999 8.00001 11.9999C7.63201 11.9999 7.33334 11.7013 7.33334 11.3333Z" fill="#39A062"/>
<path d="M8 6C8.55228 6 9 5.55228 9 5C9 4.44772 8.55228 4 8 4C7.44772 4 7 4.44772 7 5C7 5.55228 7.44772 6 8 6Z" fill="#39A062"/>
</svg>
