<svg width="104" height="46" viewBox="0 0 104 46" fill="none" xmlns="http://www.w3.org/2000/svg">
<g clip-path="url(#clip0_30219_28808)">
<rect y="3" width="40" height="40" rx="20" fill="#3C2875"/>
<rect width="5.81333" height="17.44" transform="translate(11 14.0002)" fill="#F4F4F4"/>
<path d="M22.627 25.627H27.2776C27.9197 25.627 28.4403 26.1475 28.4403 26.7896V30.2776C28.4403 30.9197 27.9197 31.4403 27.2776 31.4403H23.7896C23.1475 31.4403 22.627 30.9197 22.627 30.2776V25.627Z" fill="#FFC857"/>
<g clip-path="url(#clip1_30219_28808)">
<rect width="5.81333" height="17.44" transform="translate(28.4404 14.0002) rotate(90)" fill="#F4F4F4" fill-opacity="0.7"/>
<rect width="5.81333" height="11.6267" transform="translate(22.627 14.0002) rotate(90)" fill="#F4F4F4"/>
</g>
<rect width="5.81333" height="11.6267" transform="translate(22.627 25.627) rotate(-180)" fill="#F4F4F4" fill-opacity="0.7"/>
<path d="M50 12.179H57.5144C58.6771 12.179 59.7311 12.4225 60.6765 12.9096C61.6328 13.3858 62.3935 14.0894 62.9586 15.0203C63.5345 15.9403 63.8224 17.066 63.8224 18.3973C63.8224 19.7179 63.5563 20.8111 63.0237 21.677C62.5021 22.5429 61.8719 23.1978 61.133 23.6416C60.3941 24.0745 59.7094 24.3126 59.0792 24.3559L64.4093 33.6105H61.2471L56.2592 24.5507H52.7873V33.6105H50V12.179ZM52.7873 22.4888H56.5363C57.8187 22.4888 58.8781 22.1695 59.7148 21.5309C60.5516 20.8923 60.9699 19.8694 60.9699 18.4623C60.9699 17.0552 60.5516 16.0431 59.7148 15.4261C58.889 14.8092 57.8349 14.5007 56.5526 14.5007H52.7873V22.4888Z" fill="#19151E"/>
<path d="M78.7597 33.6103V31.0125C78.6727 31.2831 78.4173 31.6566 77.9935 32.1328C77.5806 32.6091 77.0102 33.042 76.282 33.4317C75.5648 33.8105 74.7172 33.9999 73.7393 33.9999C72.5005 33.9999 71.3758 33.7077 70.3652 33.1232C69.3654 32.5387 68.5667 31.7215 67.969 30.6716C67.3823 29.6109 67.0889 28.3714 67.0889 26.9535C67.0889 25.5355 67.3823 24.3016 67.969 23.2517C68.5667 22.191 69.3654 21.3683 70.3652 20.7839C71.3758 20.1885 72.5005 19.8909 73.7393 19.8909C74.7064 19.8909 75.5431 20.0641 76.2494 20.4104C76.9666 20.7568 77.5372 21.1573 77.961 21.6119C78.3956 22.0665 78.651 22.4561 78.727 22.7809V20.2805H81.5307V33.6103H78.7597ZM69.8924 26.9535C69.8924 27.9169 70.1043 28.7503 70.5281 29.4538C70.9519 30.1574 71.5007 30.704 72.1744 31.0936C72.859 31.4725 73.5871 31.662 74.3587 31.662C75.1845 31.662 75.9235 31.4672 76.5754 31.0775C77.2275 30.6877 77.7437 30.1412 78.1239 29.4377C78.5043 28.7233 78.6945 27.8952 78.6945 26.9535C78.6945 26.0118 78.5043 25.1892 78.1239 24.4857C77.7437 23.7713 77.2275 23.2192 76.5754 22.8296C75.9235 22.4291 75.1845 22.2288 74.3587 22.2288C73.5871 22.2288 72.859 22.4237 72.1744 22.8133C71.5007 23.203 70.9519 23.7496 70.5281 24.4531C70.1043 25.1568 69.8924 25.9902 69.8924 26.9535Z" fill="#19151E"/>
<path d="M85.6302 33.6104V20.2806H88.4663V33.6104H85.6302ZM87.0807 15.7183C86.5701 15.7183 86.1299 15.5397 85.7605 15.1825C85.4019 14.8145 85.2227 14.3761 85.2227 13.8674C85.2227 13.3587 85.4019 12.9203 85.7605 12.5523C86.1299 12.1843 86.5701 12.0002 87.0807 12.0002C87.4177 12.0002 87.7274 12.0868 88.0099 12.26C88.3034 12.4332 88.537 12.6605 88.7109 12.9419C88.8847 13.2125 88.9716 13.521 88.9716 13.8674C88.9716 14.3761 88.7869 14.8145 88.4174 15.1825C88.0479 15.5397 87.6024 15.7183 87.0807 15.7183Z" fill="#19151E"/>
<path d="M92.28 20.2805H103.951L95.9475 31.4671H103.625V33.6103H91.3672L99.3705 22.4074H92.28V20.2805Z" fill="#19151E"/>
</g>
<defs>
<clipPath id="clip0_30219_28808">
<rect width="103.951" height="46" fill="white"/>
</clipPath>
<clipPath id="clip1_30219_28808">
<rect width="5.81333" height="17.44" fill="white" transform="translate(28.4404 14.0002) rotate(90)"/>
</clipPath>
</defs>
</svg>
