<svg width="92" height="32" viewBox="0 0 92 32" fill="none" xmlns="http://www.w3.org/2000/svg">
<g clip-path="url(#clip0_27871_18131)">
<path d="M6.63468 6.74243H0.438477V25.258H6.63468V6.74243Z" fill="#FCFCFD"/>
<path d="M12.8307 19.0857H17.7877C18.472 19.0857 19.0268 19.6383 19.0268 20.3201V24.0233C19.0268 24.7049 18.472 25.2575 17.7877 25.2575H14.0699C13.3855 25.2575 12.8307 24.7049 12.8307 24.0233V19.0857Z" fill="#FFC857"/>
<mask id="mask0_27871_18131" style="mask-type:luminance" maskUnits="userSpaceOnUse" x="0" y="6" width="20" height="7">
<path d="M19.0281 12.9143V6.74243L0.439438 6.74243V12.9143H19.0281Z" fill="white"/>
</mask>
<g mask="url(#mask0_27871_18131)">
<path d="M19.0281 12.9143V6.74243L0.439438 6.74243V12.9143H19.0281Z" fill="#FCFCFD" fill-opacity="0.7"/>
<path d="M12.8306 12.9143V6.74243L0.438168 6.74243V12.9143H12.8306Z" fill="#FCFCFD"/>
</g>
<path d="M6.63449 19.0857H12.8307L12.8307 6.74202H6.63449L6.63449 19.0857Z" fill="#FCFCFD" fill-opacity="0.7"/>
<path d="M29.2606 3.54614H37.9086C39.2468 3.54614 40.4598 3.82642 41.5478 4.38698C42.6483 4.93509 43.5239 5.74479 44.1742 6.81608C44.837 7.87493 45.1683 9.17044 45.1683 10.7026C45.1683 12.2224 44.862 13.4805 44.2491 14.4771C43.6488 15.4736 42.9236 16.2273 42.0732 16.738C41.2228 17.2363 40.4348 17.5103 39.7095 17.5601L45.8437 28.2109H42.2045L36.4641 17.7843H32.4685V28.2109H29.2606V3.54614ZM32.4685 15.4114H36.783C38.2588 15.4114 39.4781 15.0439 40.441 14.3089C41.4041 13.574 41.8855 12.3968 41.8855 10.7774C41.8855 9.15798 41.4041 7.99326 40.441 7.28321C39.4906 6.57318 38.2775 6.21816 36.8018 6.21816H32.4685V15.4114Z" fill="#FCFCFD"/>
<path d="M62.3589 28.2108V25.2211C62.2587 25.5325 61.9649 25.9624 61.4771 26.5104C61.0019 27.0585 60.3454 27.5567 59.5074 28.0053C58.6821 28.4412 57.7065 28.6592 56.5811 28.6592C55.1554 28.6592 53.861 28.3229 52.6979 27.6503C51.5473 26.9775 50.6282 26.037 49.9403 24.8288C49.265 23.608 48.9274 22.1816 48.9274 20.5498C48.9274 18.9179 49.265 17.4978 49.9403 16.2895C50.6282 15.0687 51.5473 14.122 52.6979 13.4493C53.861 12.7642 55.1554 12.4216 56.5811 12.4216C57.6941 12.4216 58.6571 12.6209 59.4699 13.0196C60.2953 13.4182 60.9519 13.8791 61.4397 14.4023C61.9399 14.9255 62.2337 15.3739 62.3213 15.7476V12.8701H65.5479V28.2108H62.3589ZM52.1538 20.5498C52.1538 21.6585 52.3977 22.6176 52.8855 23.4273C53.3732 24.237 54.0047 24.8661 54.7801 25.3145C55.568 25.7505 56.406 25.9685 57.2939 25.9685C58.2443 25.9685 59.0948 25.7443 59.8451 25.2959C60.5955 24.8474 61.1896 24.2183 61.6272 23.4087C62.065 22.5865 62.2839 21.6336 62.2839 20.5498C62.2839 19.466 62.065 18.5192 61.6272 17.7096C61.1896 16.8874 60.5955 16.2521 59.8451 15.8037C59.0948 15.3428 58.2443 15.1123 57.2939 15.1123C56.406 15.1123 55.568 15.3365 54.7801 15.785C54.0047 16.2334 53.3732 16.8625 52.8855 17.6722C52.3977 18.482 52.1538 19.4411 52.1538 20.5498Z" fill="#FCFCFD"/>
<path d="M70.2658 28.2108V12.8701H73.5299V28.2108H70.2658ZM71.9353 7.61953C71.3475 7.61953 70.841 7.41399 70.4158 7.00291C70.0032 6.57937 69.7969 6.07487 69.7969 5.4894C69.7969 4.90392 70.0032 4.39941 70.4158 3.97588C70.841 3.55234 71.3475 3.34058 71.9353 3.34058C72.3231 3.34058 72.6795 3.44023 73.0046 3.63954C73.3423 3.83885 73.6112 4.10045 73.8113 4.42433C74.0114 4.73575 74.1114 5.09077 74.1114 5.4894C74.1114 6.07487 73.8989 6.57937 73.4735 7.00291C73.0483 7.41399 72.5356 7.61953 71.9353 7.61953Z" fill="#FCFCFD"/>
<path d="M77.9193 12.8701H91.3508L82.14 25.7444H90.9755V28.2108H76.8688L86.0795 15.3179H77.9193V12.8701Z" fill="#FCFCFD"/>
</g>
<defs>
<clipPath id="clip0_27871_18131">
<rect width="91.7895" height="32" fill="white"/>
</clipPath>
</defs>
</svg>
