<svg width="20" height="20" viewBox="0 0 20 20" fill="none" xmlns="http://www.w3.org/2000/svg">
<path d="M11.6667 4.16667C11.6667 3.25 10.9167 2.5 10.0001 2.5C9.08341 2.5 8.33341 3.25 8.33341 4.16667C8.33341 5.08333 9.08341 5.83333 10.0001 5.83333C10.9167 5.83333 11.6667 5.08333 11.6667 4.16667Z" stroke="#6F5B86" stroke-width="1.5"/>
<path d="M11.6667 15.8332C11.6667 14.9165 10.9167 14.1665 10.0001 14.1665C9.08341 14.1665 8.33341 14.9165 8.33341 15.8332C8.33341 16.7498 9.08341 17.4998 10.0001 17.4998C10.9167 17.4998 11.6667 16.7498 11.6667 15.8332Z" stroke="#6F5B86" stroke-width="1.5"/>
<path d="M11.6667 10.0002C11.6667 9.0835 10.9167 8.3335 10.0001 8.3335C9.08341 8.3335 8.33341 9.0835 8.33341 10.0002C8.33341 10.9168 9.08341 11.6668 10.0001 11.6668C10.9167 11.6668 11.6667 10.9168 11.6667 10.0002Z" stroke="#6F5B86" stroke-width="1.5"/>
</svg>
