<svg width="20" height="20" viewBox="0 0 20 20" fill="none" xmlns="http://www.w3.org/2000/svg">
<path d="M9.16667 16.6666C12.8486 16.6666 15.8333 13.6818 15.8333 9.99992C15.8333 6.31802 12.8486 3.33325 9.16667 3.33325C5.48477 3.33325 2.5 6.31802 2.5 9.99992C2.5 13.6818 5.48477 16.6666 9.16667 16.6666Z" fill="#C2C1FF"/>
<path d="M11.1483 11.4041C11.1483 9.2458 8.76582 9.5408 8.76582 8.4158C8.76582 7.7533 9.28665 7.6833 9.46666 7.6833C9.64416 7.6833 9.80166 7.7258 9.93499 7.7858C10.2483 7.92746 10.62 7.7958 10.8183 7.51496C11.0725 7.15496 10.9408 6.64913 10.5392 6.4683C10.3192 6.36913 10.0442 6.28913 9.71082 6.25746V5.94413C9.71082 5.6558 9.47666 5.42163 9.18832 5.42163C8.89999 5.42163 8.66582 5.6558 8.66582 5.94413V6.36746C7.79166 6.65913 7.22332 7.45913 7.22332 8.4833C7.22332 10.7483 9.57665 10.3391 9.57665 11.5166C9.57665 11.7433 9.46916 12.2375 8.88582 12.2375C8.62666 12.2375 8.40249 12.1641 8.21999 12.0691C7.91082 11.9075 7.52666 12.0266 7.32916 12.315L7.30832 12.3458C7.07999 12.6791 7.17249 13.1458 7.52332 13.345C7.81832 13.5125 8.17916 13.6425 8.61499 13.6883V14.055C8.61499 14.3433 8.84916 14.5775 9.13749 14.5775C9.42582 14.5775 9.65999 14.3433 9.65999 14.055V13.5941C10.6275 13.2983 11.1483 12.4166 11.1483 11.4041Z" fill="#0055CC"/>
<path d="M11.6667 3.33325C11.2392 3.33325 10.8217 3.37742 10.4167 3.45409C13.5008 4.03992 15.8333 6.74575 15.8333 9.99992C15.8333 13.2541 13.5008 15.9599 10.4167 16.5458C10.8217 16.6224 11.2392 16.6666 11.6667 16.6666C15.3483 16.6666 18.3333 13.6816 18.3333 9.99992C18.3333 6.31825 15.3483 3.33325 11.6667 3.33325Z" fill="#0055CC"/>
</svg>
