<svg width="56" height="56" viewBox="0 0 56 56" fill="none" xmlns="http://www.w3.org/2000/svg">
<rect width="56" height="56" rx="28" fill="#FCFCFD"/>
<path d="M38.6666 24H17.3333C15.86 24 14.6666 25.1933 14.6666 26.6667V37.3333C14.6666 38.8067 15.86 40 17.3333 40H38.6666C40.14 40 41.3333 38.8067 41.3333 37.3333V26.6667C41.3333 25.1933 40.14 24 38.6666 24Z" fill="#F0E4D3"/>
<path d="M18.3427 24L36.1613 20.0627C36.4747 19.9934 36.7867 19.992 37.0867 20.032L35.5973 17.368C34.8787 16.0827 33.2533 15.6227 31.968 16.3414L18.276 24H18.3427Z" fill="#F0E4D3"/>
<path d="M28 37.3333C30.5774 37.3333 32.6667 34.9455 32.6667 32C32.6667 29.0544 30.5774 26.6666 28 26.6666C25.4227 26.6666 23.3334 29.0544 23.3334 32C23.3334 34.9455 25.4227 37.3333 28 37.3333Z" fill="#EF976B"/>
<path d="M37.3333 33.3333C38.0697 33.3333 38.6667 32.7363 38.6667 32C38.6667 31.2636 38.0697 30.6666 37.3333 30.6666C36.597 30.6666 36 31.2636 36 32C36 32.7363 36.597 33.3333 37.3333 33.3333Z" fill="#EF976B"/>
<path d="M18.6667 33.3333C19.4031 33.3333 20 32.7363 20 32C20 31.2636 19.4031 30.6666 18.6667 30.6666C17.9303 30.6666 17.3334 31.2636 17.3334 32C17.3334 32.7363 17.9303 33.3333 18.6667 33.3333Z" fill="#EF976B"/>
<path d="M38.6667 23.9999C39.0827 23.9999 39.472 24.1039 39.8227 24.2733L39.34 22.0919C39.0227 20.6533 37.5987 19.7453 36.1613 20.0639L18.3427 23.9999H38.6667Z" fill="#EF976B"/>
</svg>
